<svg width="50" height="50" viewBox="0 0 50 50" fill="none" xmlns="http://www.w3.org/2000/svg">
<path fill-rule="evenodd" clip-rule="evenodd" d="M2.10908 3.84446C1.73029 4.49168 1.51514 5.39168 1.51514 6.26946C1.51514 7.14724 1.72877 8.04724 2.10908 8.69724L23.4985 45.2417C23.8954 45.9222 24.4273 46.2972 24.997 46.2972C25.5651 46.2972 26.097 45.9222 26.4954 45.2417L47.8833 8.69724C48.6863 7.32779 48.6863 5.2139 47.8833 3.84446C47.4738 3.15913 46.9393 2.77917 46.3848 2.77917C45.8303 2.77917 45.2959 3.15913 44.8863 3.84446L24.997 37.8278L24.4803 36.9445L5.11362 3.85557C4.28029 2.47224 2.91362 2.47224 2.10908 3.84446Z" fill="#D974AB" stroke="#D974AB"/>
</svg>
