<svg width="96" height="17" viewBox="0 0 96 17" fill="none" xmlns="http://www.w3.org/2000/svg">
<g clip-path="url(#clip0_30_2989)">
<path d="M88.7597 8.28387C88.1383 6.77443 87.5519 5.25082 87.001 3.71427H89.0346C89.3936 4.89859 89.8003 6.07107 90.231 7.25539C90.6736 8.43939 91.128 9.61187 91.6186 10.7603C92.4963 8.44599 93.2746 6.09515 93.9514 3.71427H95.9133C95.6457 4.57013 95.3584 5.41974 95.0518 6.26243C94.6985 7.2429 94.3356 8.21991 93.9632 9.19331C93.5565 10.2461 93.0781 11.4301 92.5517 12.7223C92.0493 13.9424 91.487 14.8157 90.889 15.3539C90.2787 15.8803 89.537 16.1555 88.64 16.1555C88.3989 16.1554 88.1585 16.1313 87.9222 16.0835V14.4688C88.0419 14.4807 88.1376 14.4925 88.2093 14.5047H88.4246C88.951 14.5047 89.3936 14.361 89.7523 14.0858C90.1114 13.8106 90.4342 13.3562 90.7334 12.7101C90.0397 11.2627 89.3936 9.79139 88.7715 8.28387H88.7597ZM85.6253 12.5786H83.807V11.3344C83.4842 11.801 83.0774 12.16 82.575 12.4112C82.0723 12.6624 81.5101 12.7939 80.8762 12.7939C80.0867 12.7939 79.393 12.5904 78.7946 12.1955C78.1846 11.801 77.7181 11.2387 77.3712 10.545C77.0243 9.83907 76.8566 9.03779 76.8566 8.14051C76.8566 7.24323 77.0362 6.42979 77.383 5.72387C77.7299 5.03011 78.2205 4.48003 78.8426 4.08515C79.4646 3.69027 80.1824 3.48675 80.984 3.48675C81.5939 3.48675 82.1322 3.60675 82.6227 3.84579C83.1011 4.08515 83.5078 4.42019 83.8189 4.85059V3.71459H85.6374V12.6026L85.6253 12.5786ZM83.7712 6.80067C83.5677 6.29827 83.2566 5.89155 82.8262 5.60451C82.3955 5.31715 81.905 5.16163 81.3427 5.16163C80.5533 5.16163 79.919 5.42499 79.4406 5.96323C78.9741 6.50147 78.735 7.21923 78.735 8.12867C78.735 9.03747 78.9622 9.76739 79.4166 10.3056C79.8714 10.8439 80.4813 11.1072 81.271 11.1072C81.8451 11.1072 82.3597 10.9635 82.8022 10.6647C83.2448 10.3655 83.5798 9.97091 83.7712 9.46819V6.80067ZM66.88 0.651868H71.4019C72.921 0.651868 74.0934 0.998748 74.9187 1.69251C75.7443 2.38659 76.1629 3.36739 76.1629 4.65923C76.1629 5.95139 75.7562 6.93219 74.9309 7.62595C74.1053 8.32003 72.9331 8.66691 71.4019 8.66691H68.8298V12.5904H66.88V0.651868ZM71.2464 6.90819C72.2512 6.90819 72.9808 6.72899 73.4595 6.35779C73.9379 5.98723 74.1773 5.42499 74.1773 4.67139C74.1773 3.91779 73.9379 3.31939 73.4595 2.96067C72.9808 2.60163 72.2394 2.41027 71.2464 2.41027H68.8298V6.90819H71.2464ZM23.0198 0.571548H25.3971L29.4387 7.88355L33.481 0.571548H35.8067V12.5863H33.8675V3.37795L30.3226 9.75459H28.503L24.959 3.37795V12.5863H23.0198V0.571548ZM41.8829 5.05123C40.4922 5.05123 39.6544 6.09763 39.4541 7.39363H44.1741C44.0768 6.05891 43.3066 5.05123 41.8829 5.05123ZM37.5315 8.13219C37.5315 5.40515 39.2941 3.42019 41.9165 3.42019C44.496 3.42019 46.0365 5.37987 46.0365 8.27779V8.81059H39.4541C39.6877 10.2202 40.623 11.1703 42.1315 11.1703C43.335 11.1703 44.0874 10.8032 44.8003 10.1315L45.8307 11.3933C44.8602 12.2861 43.6256 12.8007 42.0627 12.8007C39.2237 12.8007 37.5315 10.7303 37.5315 8.13219ZM48.3878 5.22339H46.6026V3.63523H48.3878V1.00963H50.2586V3.63523H52.9706V5.22307H50.2586V9.24771C50.2586 10.6218 50.6979 11.1101 51.7776 11.1101C52.2707 11.1101 52.5533 11.0679 52.9706 10.9981V12.569C52.4506 12.7159 51.9542 12.7834 51.4173 12.7834C49.3974 12.7834 48.3878 11.6797 48.3878 9.47075V5.22307V5.22339ZM60.849 6.76739C60.4733 5.81859 59.6349 5.12003 58.4029 5.12003C56.8019 5.12003 55.7773 6.25603 55.7773 8.10659C55.7773 9.91075 56.7206 11.1018 58.3264 11.1018C59.5885 11.1018 60.4896 10.3671 60.849 9.45379V6.76739ZM62.72 12.5863H60.8835V11.3331C60.3699 12.0707 59.4358 12.8007 57.9226 12.8007C55.4893 12.8007 53.863 10.7635 53.863 8.10627C53.863 5.42435 55.5283 3.42019 58.0259 3.42019C59.2605 3.42019 60.2291 3.91395 60.8835 4.78531V3.63523H62.72V12.5863Z" fill="#ECC2FF"/>
<path d="M2.05504 8.50531C2.05504 9.23172 2.2144 9.78948 2.42304 10.1271C2.696 10.5687 3.10368 10.7562 3.51904 10.7562C4.05504 10.7562 4.54528 10.6234 5.49024 9.31651C6.24672 8.26915 7.13856 6.79907 7.73888 5.87747L8.75488 4.31588C9.4608 3.23171 10.2781 2.02628 11.2147 1.20932C11.9795 0.542435 12.8048 0.171875 13.6352 0.171875C15.0294 0.171875 16.3571 0.979555 17.3734 2.49475C18.4854 4.15395 19.0253 6.24419 19.0253 8.40099C19.0253 9.68323 18.7725 10.625 18.3427 11.3696C17.927 12.0896 17.1171 12.8087 15.7552 12.8087V10.7562C16.9216 10.7562 17.2125 9.68419 17.2125 8.45795C17.2125 6.70979 16.8051 4.76995 15.9072 3.38403C15.2704 2.40068 14.4445 1.80003 13.536 1.80003C12.5536 1.80003 11.7632 2.54115 10.8746 3.86243C10.4019 4.5642 9.91712 5.41988 9.37248 6.38499L8.77312 7.44675C7.56896 9.58179 7.264 10.0682 6.66208 10.8708C5.60672 12.2759 4.7056 12.8087 3.51968 12.8087C2.11232 12.8087 1.22208 12.1991 0.67136 11.281C0.2208 10.5325 0 9.55075 0 8.43203L2.05504 8.50531Z" fill="#0081FB"/>
<path d="M1.62018 2.63971C2.56226 1.18755 3.92194 0.171875 5.48162 0.171875C6.38498 0.171875 7.28258 0.439075 8.22018 1.20451C9.24546 2.04163 10.3386 3.41955 11.7021 5.69091L12.1911 6.50596C13.3712 8.47235 14.0429 9.48387 14.4359 9.96099C14.9415 10.5735 15.2954 10.7562 15.7552 10.7562C16.9216 10.7562 17.2125 9.68419 17.2125 8.45795L19.0253 8.40099C19.0253 9.68323 18.7725 10.625 18.3427 11.3696C17.9271 12.0896 17.1171 12.8084 15.7552 12.8084C14.9082 12.8084 14.1581 12.6247 13.3283 11.842C12.6906 11.2413 11.945 10.1741 11.3712 9.21476L9.66498 6.36451C8.80898 4.93411 8.02338 3.86755 7.56898 3.38468C7.08002 2.86531 6.45154 2.23811 5.44866 2.23811C4.63682 2.23811 3.94754 2.80771 3.37058 3.67908L1.62018 2.63971Z" fill="url(#paint0_linear_30_2989)"/>
<path d="M5.44832 2.23811C4.63648 2.23811 3.9472 2.80771 3.37024 3.67908C2.55424 4.91043 2.05504 6.74435 2.05504 8.50531C2.05504 9.23172 2.2144 9.78948 2.42304 10.1271L0.67072 11.281C0.22112 10.5325 0 9.55075 0 8.43203C0 6.39747 0.5584 4.27715 1.62016 2.63971C2.56224 1.18755 3.92192 0.171875 5.4816 0.171875L5.44864 2.23811H5.44832Z" fill="url(#paint1_linear_30_2989)"/>
</g>
<defs>
<linearGradient id="paint0_linear_30_2989" x1="4.03586" y1="7.91267" x2="17.1357" y2="8.57411" gradientUnits="userSpaceOnUse">
<stop stop-color="#0064E1"/>
<stop offset="0.4" stop-color="#0064E1"/>
<stop offset="0.83" stop-color="#0073EE"/>
<stop offset="1" stop-color="#0082FB"/>
</linearGradient>
<linearGradient id="paint1_linear_30_2989" x1="2.97728" y1="9.36803" x2="2.97728" y2="4.53859" gradientUnits="userSpaceOnUse">
<stop stop-color="#0082FB"/>
<stop offset="1" stop-color="#0064E0"/>
</linearGradient>
<clipPath id="clip0_30_2989">
<rect width="96" height="16" fill="white" transform="translate(0 0.171875)"/>
</clipPath>
</defs>
</svg>
