<svg width="18" height="19" viewBox="0 0 18 19" fill="none" xmlns="http://www.w3.org/2000/svg">
<path d="M11.7772 11.9477C12.2778 11.4469 12.6749 10.8523 12.9457 10.198C13.2165 9.54365 13.3558 8.84239 13.3556 8.13423C13.3555 7.42607 13.2158 6.72488 12.9446 6.07069C12.6735 5.41651 12.2761 4.82214 11.7752 4.32152C11.2744 3.8209 10.6798 3.42384 10.0255 3.153C9.37116 2.88217 8.6699 2.74286 7.96174 2.74304C7.25358 2.74322 6.55239 2.88288 5.8982 3.15405C5.24402 3.42521 4.64965 3.82258 4.14903 4.32345C3.64841 4.8244 3.25137 5.41906 2.98056 6.07346C2.70976 6.72786 2.5705 7.42919 2.57074 8.13741C2.57122 9.56772 3.13987 10.9393 4.1516 11.9503C5.16332 12.9613 6.53525 13.5291 7.96556 13.5286C9.39587 13.5281 10.7674 12.9595 11.7785 11.9477H11.7772ZM11.7772 11.9477L16.2 16.3719L11.7772 11.9477Z" fill="black"/>
</svg>
