<svg width="84" height="21" viewBox="0 0 84 21" fill="none" xmlns="http://www.w3.org/2000/svg">
<g clip-path="url(#clip0_30_2996)">
<path fill-rule="evenodd" clip-rule="evenodd" d="M55.991 0.171875C54.3039 0.171875 52.9362 1.53928 52.9362 3.22629V17.1177C52.9362 18.8045 54.3039 20.1719 55.991 20.1719H80.8856C82.5727 20.1719 83.9404 18.8045 83.9404 17.1177V3.22629C83.9404 1.53953 82.5727 0.171875 80.8856 0.171875L55.991 0.171875ZM60.3516 14.1388V10.6178H62.5672C64.5913 10.6178 65.6675 9.4828 65.6675 7.7633C65.6675 6.04381 64.5913 5.01451 62.5672 5.01451H58.9244V14.1388H60.3516ZM60.3516 6.37116H62.2396C63.5498 6.37116 64.1935 6.90943 64.1935 7.81003C64.1935 8.71089 63.5732 9.2489 62.2979 9.2489H60.3516V6.37116ZM68.1841 14.3259C69.2722 14.3259 69.9858 13.8461 70.3134 13.0273C70.407 13.9399 70.9571 14.4076 72.1503 14.0918L72.1621 13.121C71.6823 13.1677 71.5887 12.9923 71.5887 12.4892V10.1028C71.5887 8.69914 70.6644 7.86876 68.9564 7.86876C67.2714 7.86876 66.3004 8.71089 66.3004 10.1378H67.6109C67.6109 9.45956 68.0905 9.04999 68.933 9.04999C69.822 9.04999 70.2316 9.43607 70.2198 10.103V10.4071L68.7105 10.5708C67.014 10.758 66.0782 11.4015 66.0782 12.5245C66.0782 13.4486 66.7332 14.3259 68.1841 14.3259ZM68.4765 13.2731C67.7395 13.2731 67.4471 12.8753 67.4471 12.4775C67.4471 11.9395 68.0555 11.6938 69.2488 11.5534L70.1848 11.4482C70.1262 12.4777 69.436 13.2731 68.4765 13.2731ZM76.4959 14.5951C75.8993 16.0454 74.9398 16.4782 73.4423 16.4782H72.7987V15.2853H73.4892C74.308 15.2853 74.7058 15.0279 75.1389 14.2909L72.4829 8.05618H73.9569L75.8525 12.6067L77.5372 8.05618H78.9762L76.4959 14.5951Z" fill="#ECC2FF"/>
<path d="M7.27031 8.96303C5.31589 8.53897 4.4451 8.37329 4.4451 7.62012C4.4451 6.91193 5.03433 6.55908 6.2128 6.55908C7.24913 6.55908 8.00685 7.01214 8.5643 7.89925C8.60643 7.96772 8.69338 7.99146 8.76433 7.95472L10.9634 6.84346C10.982 6.83404 10.9985 6.82083 11.0119 6.80465C11.0253 6.78847 11.0352 6.76967 11.0412 6.74942C11.0471 6.72917 11.0488 6.7079 11.0463 6.68693C11.0437 6.66597 11.037 6.64575 11.0264 6.62755C10.1137 5.04525 8.42759 4.17913 6.20762 4.17913C3.29029 4.17913 1.478 5.6165 1.478 7.902C1.478 10.3294 3.68516 10.9429 5.64204 11.3667C7.59892 11.7908 8.47242 11.9565 8.47242 12.7094C8.47242 13.4626 7.83589 13.8179 6.5653 13.8179C5.39201 13.8179 4.52146 13.2806 3.99529 12.2383C3.97655 12.2015 3.94423 12.1736 3.90534 12.1608C3.86646 12.148 3.82416 12.1512 3.78764 12.1699L1.59378 13.2572C1.57554 13.2663 1.55928 13.279 1.54594 13.2946C1.5326 13.3102 1.52245 13.3283 1.51608 13.3479C1.5097 13.3675 1.50724 13.3882 1.50882 13.4088C1.5104 13.4294 1.51601 13.4494 1.5253 13.4678C2.39609 15.2185 4.18202 16.2034 6.56776 16.2034C9.60605 16.2034 11.442 14.7895 11.442 12.433C11.442 10.0765 9.22473 9.3921 7.27031 8.96828V8.96303ZM19.0547 4.17913C17.8078 4.17913 16.7057 4.62143 15.9139 5.40859C15.8639 5.45607 15.7824 5.42183 15.7824 5.35336V0.327312C15.7825 0.306712 15.7785 0.286305 15.7707 0.267285C15.7629 0.248265 15.7514 0.231014 15.737 0.216541C15.7225 0.202067 15.7054 0.190663 15.6865 0.182995C15.6677 0.175326 15.6475 0.171548 15.6272 0.17188H12.8756C12.8553 0.171548 12.8352 0.175326 12.8163 0.182995C12.7975 0.190663 12.7803 0.202067 12.7659 0.216541C12.7514 0.231014 12.74 0.248265 12.7322 0.267285C12.7244 0.286305 12.7204 0.306712 12.7205 0.327312V15.927C12.7204 15.9476 12.7244 15.9679 12.7322 15.9869C12.7401 16.0059 12.7515 16.0231 12.766 16.0376C12.7804 16.052 12.7976 16.0634 12.8164 16.0711C12.8352 16.0787 12.8554 16.0825 12.8756 16.0822H15.6272C15.6475 16.0825 15.6676 16.0787 15.6865 16.0711C15.7053 16.0634 15.7224 16.052 15.7369 16.0376C15.7513 16.0231 15.7628 16.0059 15.7706 15.9869C15.7784 15.9679 15.7824 15.9476 15.7824 15.927V9.08398C15.7824 7.76231 16.7948 6.74875 18.1603 6.74875C19.5254 6.74875 20.5145 7.74132 20.5145 9.08398V15.927C20.5144 15.9476 20.5184 15.9679 20.5263 15.9869C20.5341 16.0059 20.5455 16.0231 20.56 16.0376C20.5744 16.052 20.5916 16.0634 20.6104 16.0711C20.6292 16.0787 20.6494 16.0825 20.6697 16.0822H23.4212C23.4415 16.0825 23.4616 16.0787 23.4805 16.0711C23.4993 16.0634 23.5164 16.052 23.5309 16.0376C23.5453 16.0231 23.5568 16.0059 23.5646 15.9869C23.5724 15.9679 23.5764 15.9476 23.5764 15.927V9.08398C23.5764 6.20899 21.6929 4.18162 19.0547 4.18162V4.17913ZM29.1633 3.73407C27.6693 3.73407 26.2647 4.18962 25.2596 4.85033C25.2264 4.87177 25.2027 4.90543 25.1934 4.94424C25.1841 4.98305 25.19 5.024 25.2099 5.05849L26.4223 7.13058C26.4671 7.2043 26.5617 7.23054 26.6354 7.18556C27.3999 6.72477 28.274 6.48457 29.1633 6.49086C31.5648 6.49086 33.3298 8.18637 33.3298 10.4266C33.3298 12.3358 31.9173 13.7494 30.1259 13.7494C28.6662 13.7494 27.6535 12.8991 27.6535 11.6986C27.6535 11.0114 27.9454 10.4479 28.7056 10.0503C28.7242 10.0409 28.7408 10.0277 28.7541 10.0114C28.7674 9.99518 28.7773 9.97628 28.783 9.95595C28.7887 9.93562 28.7901 9.91431 28.7872 9.89338C28.7843 9.87245 28.7772 9.85236 28.7662 9.8344L27.622 7.89675C27.6032 7.86546 27.5743 7.84177 27.5401 7.82974C27.506 7.8177 27.4689 7.81807 27.435 7.83078C25.9016 8.39953 24.8256 9.76868 24.8256 11.6064C24.8256 14.3867 27.0379 16.4613 30.1235 16.4613C33.7271 16.4613 36.3181 13.9628 36.3181 10.3794C36.3181 6.53809 33.3037 3.73157 29.1581 3.73157L29.1633 3.73407ZM44.3643 4.15789C42.9728 4.15789 41.7313 4.67141 40.8238 5.57726C40.813 5.58819 40.7992 5.59561 40.7842 5.59861C40.7693 5.60161 40.7538 5.60004 40.7397 5.5941C40.7256 5.58816 40.7136 5.57812 40.7052 5.56525C40.6967 5.55238 40.6922 5.53726 40.6922 5.52179V4.43177C40.6922 4.41119 40.6882 4.39081 40.6804 4.37182C40.6726 4.35282 40.6611 4.3356 40.6467 4.32116C40.6323 4.30671 40.6151 4.29533 40.5963 4.28768C40.5774 4.28002 40.5573 4.27625 40.537 4.27658H37.8567C37.8364 4.27625 37.8162 4.28002 37.7974 4.28768C37.7786 4.29533 37.7614 4.30671 37.747 4.32116C37.7325 4.3356 37.7211 4.35282 37.7132 4.37182C37.7054 4.39081 37.7014 4.41119 37.7015 4.43177V20.0077C37.7014 20.0283 37.7054 20.0487 37.7132 20.0677C37.721 20.0867 37.7324 20.104 37.7469 20.1185C37.7613 20.1329 37.7785 20.1444 37.7973 20.152C37.8162 20.1597 37.8363 20.1635 37.8567 20.1631H40.608C40.6283 20.1635 40.6485 20.1597 40.6674 20.1521C40.6862 20.1444 40.7034 20.133 40.7179 20.1186C40.7324 20.1041 40.7439 20.0868 40.7517 20.0678C40.7595 20.0487 40.7635 20.0283 40.7634 20.0077V14.8999C40.7634 14.8315 40.8449 14.7975 40.8947 14.8422C41.7997 15.6846 42.9964 16.1771 44.367 16.1771C47.5945 16.1771 50.1118 13.5625 50.1118 10.1663C50.1118 6.76974 47.5918 4.15539 44.367 4.15539L44.3643 4.15789ZM43.8463 13.5388C42.0101 13.5388 40.6186 12.0777 40.6186 10.1453C40.6186 8.21261 42.0074 6.75125 43.8463 6.75125C45.6849 6.75125 47.071 8.18887 47.071 10.145C47.071 12.1014 45.7031 13.5388 43.8436 13.5388H43.8463Z" fill="#ECC2FF"/>
</g>
<defs>
<clipPath id="clip0_30_2996">
<rect width="84" height="20" fill="white" transform="translate(0 0.171875)"/>
</clipPath>
</defs>
</svg>
