<svg width="20" height="21" viewBox="0 0 20 21" fill="none" xmlns="http://www.w3.org/2000/svg">
<g clip-path="url(#clip0_30_3450)">
<path d="M10.121 4.33183L10.435 3.9655C11.217 3.045 12.781 1.5015 14.373 1.5015C17.155 1.5015 18.75 3.34133 18.75 6.54967C18.75 8.9005 17.082 10.9748 16.547 11.5827L10.24 18.8067C10.1763 18.8808 10.09 18.9224 10 18.9224C9.91003 18.9224 9.82373 18.8808 9.76 18.8067L3.418 11.5337C3.396 11.5115 1.248 9.17233 1.248 6.54967C1.248 3.34133 2.842 1.5015 5.624 1.5015C7.217 1.5015 8.777 3.045 9.564 3.9655L9.878 4.33183C9.89381 4.35053 9.91265 4.36537 9.93342 4.3755C9.9542 4.38564 9.97649 4.39085 9.999 4.39085C10.0215 4.39085 10.0438 4.38564 10.0646 4.3755C10.0853 4.36537 10.1042 4.35053 10.12 4.33183M10 2.4045C8.99 1.34167 7.379 0 5.625 0C2.155 0 0 2.50833 0 6.54967C0 9.912 2.574 12.6397 2.579 12.6432L9.759 20.8845C9.82298 20.958 9.90919 20.9992 9.999 20.9992C10.0888 20.9992 10.175 20.958 10.239 20.8845L17.429 12.6455C18.032 11.9607 20 9.4955 20 6.5485C20 2.50717 17.843 0 14.373 0C12.62 0 11.003 1.34283 10 2.40333" fill="#222222"/>
</g>
<defs>
<clipPath id="clip0_30_3450">
<rect width="20" height="21" fill="white"/>
</clipPath>
</defs>
</svg>
