<svg width="20" height="21" viewBox="0 0 20 21" fill="none" xmlns="http://www.w3.org/2000/svg">
<g clip-path="url(#clip0_30_3456)">
<path d="M17.7342 5.0232C17.7224 4.92981 17.6791 4.84396 17.6121 4.78132C17.5451 4.71867 17.4589 4.68341 17.3692 4.68195H14.9152C14.5662 1.99605 12.4722 0 10.0022 0C7.53217 0 5.43717 1.995 5.08817 4.68195H2.63217C2.54247 4.68341 2.45625 4.71867 2.38924 4.78132C2.32224 4.84396 2.27892 4.92981 2.26717 5.0232L0.00217224 20.7669C-0.00192364 20.7958 -0.000214336 20.8254 0.00719056 20.8536C0.0145955 20.8818 0.0275325 20.908 0.0451722 20.9307C0.0623899 20.9527 0.0840882 20.9703 0.108666 20.9823C0.133243 20.9943 0.160072 21.0003 0.187172 21H19.8162C19.843 21 19.8695 20.9937 19.8938 20.9815C19.918 20.9693 19.9393 20.9516 19.9562 20.9296C19.9735 20.907 19.9862 20.8809 19.9934 20.8529C20.0006 20.8249 20.0023 20.7956 19.9982 20.7669L17.7342 5.0232ZM10.0042 1.5477C11.6942 1.5498 13.1482 2.8602 13.4792 4.68195H6.52417C6.85417 2.85915 8.30917 1.54455 10.0012 1.54245L10.0032 1.54875L10.0042 1.5477ZM17.9792 19.4817H2.02517C1.9714 19.4814 1.91838 19.4685 1.86994 19.444C1.82151 19.4195 1.77889 19.3839 1.74517 19.34C1.7104 19.2948 1.68498 19.2425 1.67051 19.1865C1.65605 19.1304 1.65287 19.0719 1.66117 19.0144L3.45317 6.5415C3.46489 6.44828 3.50807 6.36258 3.57487 6.29996C3.64166 6.23733 3.72764 6.20196 3.81717 6.20025H16.1852C16.3662 6.20025 16.5212 6.34515 16.5492 6.5415L18.3452 19.0092C18.3538 19.0672 18.3506 19.1264 18.336 19.183C18.3214 19.2397 18.2955 19.2924 18.2602 19.3378C18.2259 19.3821 18.1825 19.4176 18.1334 19.4417C18.0842 19.4659 18.0305 19.4781 17.9762 19.4775L17.9792 19.4817Z" fill="#222222"/>
</g>
<defs>
<clipPath id="clip0_30_3456">
<rect width="20" height="21" fill="white"/>
</clipPath>
</defs>
</svg>
