<svg width="85" height="23" viewBox="0 0 85 23" fill="none" xmlns="http://www.w3.org/2000/svg">
<g clip-path="url(#clip0_30_3036)">
<mask id="mask0_30_3036" style="mask-type:luminance" maskUnits="userSpaceOnUse" x="0" y="0" width="85" height="23">
<path d="M0 0.171875H84.7641V22.1719H0V0.171875Z" fill="white"/>
</mask>
<g mask="url(#mask0_30_3036)">
<path fill-rule="evenodd" clip-rule="evenodd" d="M27.004 5.09199H31.6946C33.2645 5.09199 34.4467 5.53199 35.1137 6.36491C35.7209 7.12303 35.9216 8.20543 35.7117 9.58351C35.246 12.7326 33.4627 14.3219 30.3732 14.3219H28.8879C28.5678 14.3219 28.2938 14.5696 28.2448 14.9071L27.733 18.3554C27.6827 18.6928 27.4099 18.9406 27.089 18.9406H24.8495C24.6088 18.9406 24.425 18.7135 24.4627 18.461L26.36 5.67675C26.4099 5.33971 26.6831 5.09155 27.004 5.09155V5.09199ZM29.4473 11.5503C30.6907 11.5503 31.9769 11.5503 32.2332 9.76127C32.3274 9.13295 32.2519 8.67799 32.0056 8.37175C31.5927 7.85871 30.7939 7.85871 29.9465 7.85871H29.6221C29.4304 7.85871 29.2656 8.00743 29.2361 8.20939L28.7396 11.5503H29.4473ZM43.4693 9.70407H45.7153C45.9555 9.70407 46.1386 9.93199 46.1 10.1837L44.8861 18.3549C44.8354 18.6924 44.5639 18.9401 44.2421 18.9401H42.219C41.9796 18.9401 41.7957 18.7131 41.833 18.4592L41.9337 17.7961C41.9337 17.7961 40.8243 19.1628 38.8242 19.1628C37.6594 19.1628 36.6797 18.8055 35.9954 17.9484C35.249 17.0156 34.9437 15.6788 35.1584 14.2805C35.5712 11.4777 37.691 9.47923 40.1734 9.47923C41.2558 9.47923 42.34 9.73003 42.8266 10.4802L42.9836 10.7222L43.0833 10.0548C43.0954 9.959 43.1411 9.87087 43.2119 9.80647C43.2828 9.74207 43.3742 9.70572 43.4693 9.70407ZM40.0502 16.6297C41.3495 16.6297 42.3678 15.7145 42.5846 14.3505C42.6826 13.69 42.5469 13.0908 42.2047 12.6613C41.863 12.2363 41.3443 12.011 40.7068 12.011C39.4275 12.011 38.3918 12.957 38.1898 14.3091C38.0839 14.9722 38.2101 15.5675 38.5419 15.9864C38.8767 16.4079 39.398 16.6297 40.0502 16.6297Z" fill="#253B80"/>
<path d="M57.6782 9.70361H55.4213C55.2058 9.70361 55.0037 9.81757 54.8814 10.0072L51.7681 14.882L50.4488 10.1977C50.3656 9.90469 50.111 9.70361 49.823 9.70361H47.6052C47.3355 9.70361 47.1481 9.98345 47.234 10.2536L49.7203 18.0086L47.3828 21.5154C47.1989 21.7922 47.3841 22.1719 47.7019 22.1719H49.9562C50.17 22.1719 50.3703 22.061 50.4918 21.8745L57.9995 10.3561C58.1791 10.0807 57.9947 9.70361 57.6782 9.70361Z" fill="#253B80"/>
<path fill-rule="evenodd" clip-rule="evenodd" d="M60.4606 5.09199H65.1521C66.722 5.09199 67.9037 5.53199 68.5694 6.36491C69.1766 7.12303 69.3791 8.20543 69.1683 9.58351C68.7021 12.7326 66.9193 14.3219 63.8289 14.3219H62.3445C62.0244 14.3219 61.7508 14.5696 61.7013 14.9071L61.1627 18.5314C61.128 18.7676 60.9368 18.9406 60.713 18.9406H58.3057C58.0663 18.9406 57.8824 18.7135 57.9201 18.461L59.8175 5.67675C59.8673 5.33971 60.1401 5.09155 60.4606 5.09155V5.09199ZM62.9074 11.5503C64.1516 11.5503 65.4379 11.5503 65.6937 9.76127C65.7874 9.13295 65.7128 8.67799 65.4665 8.37175C65.0536 7.85871 64.2539 7.85871 63.4074 7.85871H63.083C62.8905 7.85871 62.727 8.00743 62.6975 8.20939L62.2005 11.5503H62.9074ZM76.9263 9.70363H79.171C79.4117 9.70363 79.5956 9.93243 79.5587 10.1832L78.344 18.3549C78.2937 18.6924 78.0209 18.9401 77.7004 18.9401H75.6778C75.4371 18.9401 75.2532 18.7131 75.2909 18.4592L75.3911 17.7957C75.3911 17.7957 74.2822 19.1628 72.2821 19.1628C71.1168 19.1628 70.1389 18.8055 69.4528 17.9484C68.7069 17.0156 68.4029 15.6788 68.6167 14.2805C69.03 11.4777 71.1494 9.47923 73.6313 9.47923C74.7137 9.47923 75.7975 9.73003 76.2836 10.4802L76.4415 10.7222L76.5408 10.0543C76.5526 9.95853 76.5981 9.87029 76.6689 9.80585C76.7398 9.74142 76.8312 9.70511 76.9263 9.70363ZM73.5085 16.6301C74.8074 16.6301 75.8274 15.7145 76.0429 14.3505C76.1422 13.69 76.0065 13.0908 75.6626 12.6609C75.3213 12.2363 74.8026 12.011 74.1647 12.011C72.8858 12.011 71.8515 12.9566 71.6476 14.3087C71.5436 14.9722 71.6685 15.568 72.0002 15.9864C72.335 16.4075 72.8576 16.6301 73.5085 16.6301Z" fill="#179BD7"/>
<path d="M81.8212 5.44262L79.8957 18.4613C79.8579 18.7135 80.0418 18.9409 80.2812 18.9409H82.2167C82.5385 18.9409 82.8113 18.6932 82.8607 18.3557L84.7593 5.57154C84.7971 5.31942 84.6132 5.09106 84.3738 5.09106H82.2063C82.015 5.09194 81.8507 5.24066 81.8212 5.44262Z" fill="#179BD7"/>
<path d="M4.98421 21.4257L5.34286 19.0039L4.54404 18.9841H0.728577L3.38006 1.11394C3.3882 1.06014 3.41421 1.01078 3.45378 0.974019C3.49261 0.93829 3.54317 0.918523 3.59559 0.918579H10.0287C12.1645 0.918579 13.6386 1.3907 14.4079 2.3235C14.7688 2.76086 14.9986 3.21758 15.1096 3.72094C15.2267 4.24894 15.2284 4.87902 15.1144 5.64814L15.1062 5.70446V6.19726L15.467 6.41462C15.7705 6.58622 16.0125 6.78202 16.1977 7.00642C16.506 7.38042 16.706 7.85562 16.7901 8.41926C16.8768 8.99874 16.8482 9.68866 16.706 10.4697C16.5412 11.3673 16.2749 12.1496 15.9158 12.7898C15.5849 13.3794 15.1638 13.8687 14.6638 14.2479C14.1868 14.6079 13.6195 14.8815 12.9781 15.0562C12.3567 15.2283 11.648 15.3149 10.8709 15.3149H10.3704C10.0122 15.3149 9.66442 15.4522 9.39164 15.6977C9.11642 15.9509 8.93606 16.2929 8.8812 16.6657L8.84347 16.884L8.21031 21.152L8.18125 21.3091C8.17345 21.3583 8.16044 21.3834 8.14136 21.4001C8.12302 21.4162 8.09968 21.4253 8.07544 21.4257H4.98421Z" fill="#253B80"/>
<path d="M15.8079 5.76123C15.7888 5.89191 15.7667 6.02523 15.7419 6.16207C14.8937 10.7922 11.9907 12.3916 8.28406 12.3916H6.39628C5.94309 12.3916 5.56102 12.7414 5.49033 13.217L4.52411 19.7312L4.25003 21.5779C4.20406 21.8899 4.43043 22.1715 4.72663 22.1715H8.07459C8.47054 22.1715 8.8075 21.8652 8.86995 21.4499L8.90291 21.2686L9.53304 17.0173L9.5738 16.7841C9.63538 16.367 9.97278 16.0608 10.3692 16.0608H10.8701C14.1135 16.0608 16.6527 14.6611 17.3947 10.6105C17.7047 8.91867 17.5443 7.50583 16.7238 6.51231C16.4757 6.21267 16.1678 5.96407 15.8079 5.76123Z" fill="#179BD7"/>
<path d="M14.9184 5.38456C14.6479 5.30143 14.3724 5.23646 14.0935 5.19008C13.5848 5.10252 13.0271 5.06116 12.43 5.06116H7.3872C7.26317 5.06116 7.14521 5.09108 7.0394 5.14476C6.80695 5.26356 6.63435 5.49764 6.59271 5.78408L5.51937 13.0058L5.48901 13.2166C5.55927 12.7414 5.94134 12.3911 6.39496 12.3911H8.2823C11.9893 12.3911 14.8919 10.7908 15.7402 6.1616C15.7658 6.02476 15.787 5.89144 15.8061 5.7612C15.583 5.63656 15.3497 5.53174 15.1088 5.44792C15.0458 5.42581 14.982 5.40469 14.9184 5.38456Z" fill="#222D65"/>
<path d="M6.59402 5.78451C6.61257 5.6495 6.66288 5.521 6.74071 5.40987C6.81853 5.29875 6.92158 5.20827 7.04114 5.14608C7.14739 5.09196 7.26492 5.06247 7.38895 5.06247H12.4313C13.0289 5.06247 13.5861 5.10383 14.0953 5.19095C14.4401 5.24876 14.7798 5.33484 15.1109 5.44835C15.3616 5.53636 15.594 5.64108 15.8087 5.7612C16.0611 4.05003 15.8066 2.88535 14.9362 1.83024C13.9764 0.669075 12.2448 0.171875 10.0287 0.171875H3.59517C3.14285 0.171875 2.75645 0.521675 2.68663 0.997755L0.00652447 19.0523C-0.04595 19.4096 0.213387 19.7316 0.552086 19.7316H4.5241L5.52155 13.0067L6.59402 5.78496V5.78451Z" fill="#253B80"/>
</g>
</g>
<defs>
<clipPath id="clip0_30_3036">
<rect width="85" height="22" fill="white" transform="translate(0 0.171875)"/>
</clipPath>
</defs>
</svg>
