<svg width="18" height="19" viewBox="0 0 18 19" fill="none" xmlns="http://www.w3.org/2000/svg">
<path d="M8.99999 16.3719C12.9764 16.3719 16.2 13.1483 16.2 9.17186C16.2 5.19541 12.9764 1.97186 8.99999 1.97186C5.02354 1.97186 1.79999 5.19541 1.79999 9.17186C1.79999 13.1483 5.02354 16.3719 8.99999 16.3719Z" fill="black"/>
<path d="M7.20001 6.72904C7.45716 5.05761 10.5429 5.05761 10.8 6.72904C11.0572 8.40046 8.93573 8.40046 8.93573 9.75046M9.00644 12.7719H9.00001V12.7783H9.00644V12.7719Z" fill="black"/>
<path d="M8.99997 12.7719C9.07098 12.7719 9.12854 12.7143 9.12854 12.6433C9.12854 12.5723 9.07098 12.5147 8.99997 12.5147C8.92896 12.5147 8.8714 12.5723 8.8714 12.6433C8.8714 12.7143 8.92896 12.7719 8.99997 12.7719Z" fill="black"/>
</svg>
