<svg width="16" height="16" viewBox="0 0 16 16" fill="none" xmlns="http://www.w3.org/2000/svg">
<g clip-path="url(#clip0_29_2739)">
<path d="M15.9253 15.1076C15.9525 15.0747 15.9729 15.0368 15.9853 14.9959C15.9978 14.955 16.002 14.9121 15.9978 14.8695C15.9935 14.827 15.9809 14.7857 15.9607 14.7481C15.9404 14.7106 15.913 14.6774 15.8799 14.6507L13.7916 12.9687L13.401 12.6542L12.9619 12.2849C14.0573 10.9995 14.6837 9.37512 14.7374 7.68136C14.791 5.98761 14.2686 4.32629 13.2567 2.97307C12.2449 1.61986 10.8045 0.6561 9.17464 0.241731C7.54473 -0.172639 5.82328 -0.0127111 4.29595 0.694977C2.76861 1.40266 1.52721 2.61557 0.777734 4.13241C0.028262 5.64926 -0.18422 7.37886 0.175546 9.03421C0.535313 10.6896 1.4457 12.1711 2.75564 13.2331C4.06557 14.295 5.69631 14.8735 7.37724 14.8725C8.95496 14.8769 10.4915 14.3649 11.7557 13.4133L12.6177 14.1154L14.8383 15.9277C14.9033 15.9807 14.9864 16.0058 15.0697 15.9977C15.153 15.9895 15.2297 15.9486 15.2834 15.884L15.9253 15.1076ZM7.37623 13.4795C6.18991 13.4795 5.03024 13.1248 4.04389 12.4603C3.05755 11.7958 2.28884 10.8513 1.83499 9.74629C1.38115 8.6413 1.26255 7.42543 1.49421 6.25248C1.72587 5.07953 2.29738 4.00219 3.13644 3.15672C3.97551 2.31125 5.04444 1.73564 6.20803 1.50269C7.37163 1.26974 8.57762 1.38991 9.67346 1.84801C10.7693 2.3061 11.7058 3.08155 12.3644 4.07626C13.0231 5.07097 13.3743 6.24026 13.3737 7.43623C13.3721 9.03932 12.7397 10.5763 11.6153 11.7098C10.4909 12.8434 8.96636 13.4809 7.37623 13.4825V13.4795Z" fill="black"/>
</g>
<defs>
<clipPath id="clip0_29_2739">
<rect width="16" height="16" fill="white"/>
</clipPath>
</defs>
</svg>
