<svg width="16" height="16" viewBox="0 0 16 16" fill="none" xmlns="http://www.w3.org/2000/svg">
<g clip-path="url(#clip0_18_2982)">
<path d="M15.9253 15.1076C15.9525 15.0748 15.9729 15.0368 15.9853 14.9959C15.9978 14.9551 16.002 14.9121 15.9978 14.8695C15.9935 14.827 15.9809 14.7857 15.9607 14.7482C15.9404 14.7106 15.913 14.6775 15.8799 14.6507L13.7916 12.9687L13.4009 12.6543L12.9619 12.2849C14.0573 10.9995 14.6837 9.37516 14.7374 7.68141C14.791 5.98765 14.2685 4.32633 13.2567 2.97311C12.2449 1.6199 10.8045 0.656142 9.17463 0.241773C7.54472 -0.172597 5.82328 -0.0126691 4.29594 0.695019C2.7686 1.40271 1.5272 2.61561 0.777726 4.13245C0.0282543 5.6493 -0.184228 7.3789 0.175539 9.03425C0.535305 10.6896 1.44569 12.1712 2.75563 13.2331C4.06557 14.2951 5.6963 14.8735 7.37723 14.8726C8.95495 14.877 10.4915 14.3649 11.7557 13.4134L12.6177 14.1155L14.8382 15.9278C14.9033 15.9808 14.9864 16.0059 15.0697 15.9977C15.1529 15.9895 15.2297 15.9487 15.2834 15.884L15.9253 15.1076ZM7.37622 13.4795C6.1899 13.4795 5.03023 13.1248 4.04389 12.4603C3.05754 11.7958 2.28883 10.8513 1.83498 9.74634C1.38114 8.64134 1.26255 7.42548 1.49421 6.25253C1.72587 5.07958 2.29737 4.00223 3.13644 3.15677C3.9755 2.3113 5.04443 1.73568 6.20803 1.50273C7.37162 1.26978 8.57761 1.38995 9.67345 1.84805C10.7693 2.30615 11.7058 3.08159 12.3644 4.0763C13.0231 5.07101 13.3743 6.2403 13.3737 7.43628C13.3721 9.03936 12.7397 10.5763 11.6153 11.7099C10.4909 12.8434 8.96636 13.481 7.37622 13.4826V13.4795Z" fill="black"/>
</g>
<defs>
<clipPath id="clip0_18_2982">
<rect width="16" height="16" fill="white"/>
</clipPath>
</defs>
</svg>
