<svg width="20" height="21" viewBox="0 0 20 21" fill="none" xmlns="http://www.w3.org/2000/svg">
<g clip-path="url(#clip0_18_2991)">
<path d="M19.952 20.1778C19.355 16.0566 16.403 12.7039 12.462 11.6728C14.947 10.3351 16.206 7.42033 15.502 4.63783C14.798 1.85428 12.316 -0.0661671 9.50998 0.00208286C6.70398 0.0692829 4.31298 2.10733 3.73698 4.92238C3.16198 7.73638 4.55398 10.5861 7.09698 11.802C3.36698 12.9664 0.62598 16.2267 0.0539802 20.1778L0.00398022 20.5033C-0.0045084 20.5663 0.000212291 20.6304 0.0178114 20.6912C0.0354104 20.752 0.065462 20.808 0.105859 20.8553C0.146257 20.9026 0.196022 20.9401 0.251667 20.9651C0.307311 20.9901 0.367489 21.002 0.42798 21H19.576C19.699 21 19.816 20.9454 19.896 20.8498C19.9358 20.8033 19.9654 20.7481 19.9827 20.6882C19.9999 20.6284 20.0045 20.5653 19.996 20.5033L19.952 20.1778ZM5.01298 6.19183C5.01298 3.56788 7.08998 1.44058 9.65198 1.44058C12.214 1.44058 14.291 3.56788 14.291 6.19288C14.291 8.81788 12.214 10.9452 9.65198 10.9452C7.09198 10.942 5.01598 8.81473 5.01298 6.19183ZM2.15998 19.5604C2.09312 19.5621 2.02681 19.5473 1.96637 19.5172C1.90594 19.4871 1.85306 19.4426 1.81198 19.3872C1.77174 19.3325 1.74479 19.2684 1.73347 19.2003C1.72214 19.1323 1.72678 19.0623 1.74698 18.9966C2.87698 15.3037 6.21798 12.7911 9.99698 12.7911C13.775 12.7911 17.117 15.3037 18.247 18.9966C18.267 19.0624 18.2715 19.1324 18.26 19.2005C18.2485 19.2685 18.2214 19.3326 18.181 19.3872C18.14 19.4425 18.0873 19.4869 18.027 19.517C17.9668 19.5471 17.9007 19.5619 17.834 19.5604H2.15998Z" fill="#222222"/>
</g>
<defs>
<clipPath id="clip0_18_2991">
<rect width="20" height="21" fill="white"/>
</clipPath>
</defs>
</svg>
