<svg width="20" height="16" viewBox="0 0 20 16" fill="none" xmlns="http://www.w3.org/2000/svg">
<path d="M13.4989 6.50111C13.4989 5.1748 12.9721 3.90281 12.0346 2.96497C11.097 2.02713 9.82532 1.50026 8.49937 1.50026C7.17341 1.50026 5.90177 2.02713 4.96418 2.96497C4.02659 3.90281 3.49985 5.1748 3.49985 6.50111C3.49985 7.82742 4.02659 9.09941 4.96418 10.0372C5.90177 10.9751 7.17341 11.502 8.49937 11.502C9.82532 11.502 11.097 10.9751 12.0346 10.0372C12.9721 9.09941 13.4989 7.82742 13.4989 6.50111ZM12.5333 11.5989C11.4272 12.4771 10.0242 13.0022 8.49937 13.0022C4.90909 13.0022 2 10.0923 2 6.50111C2 2.90987 4.90909 0 8.49937 0C12.0896 0 14.9987 2.90987 14.9987 6.50111C14.9987 8.02637 14.4738 9.42974 13.5957 10.5362L17.7797 14.7213C18.0734 15.0151 18.0734 15.4901 17.7797 15.7808C17.486 16.0715 17.011 16.0746 16.7204 15.7808L12.5333 11.5989Z" fill="black"/>
</svg>
