<svg width="25" height="20" viewBox="0 0 25 20" fill="none" xmlns="http://www.w3.org/2000/svg">
<path fill-rule="evenodd" clip-rule="evenodd" d="M12.4999 9.40783C14.7741 9.40783 16.6176 7.56507 16.6176 5.2919C16.6176 3.01874 14.7741 1.17598 12.4999 1.17598C10.2258 1.17598 8.38228 3.01874 8.38228 5.2919C8.38228 7.56507 10.2258 9.40783 12.4999 9.40783ZM12.4999 19.4036H21.3234C21.3234 14.5326 17.3731 10.5838 12.4999 10.5838C7.62683 10.5838 3.67639 14.5326 3.67639 19.4036H12.4999Z" fill="black"/>
<path fill-rule="evenodd" clip-rule="evenodd" d="M12.5 0C15.0734 0 17.2969 1.79724 17.8355 4.31255C18.2478 6.23731 17.5875 8.18214 16.2028 9.46105L16.0094 9.63125L15.9235 9.6983L16.0986 9.76307C19.7019 11.1536 22.2176 14.5246 22.4778 18.4291L22.4948 18.775L22.5 19.0876C22.5 19.5495 22.1566 19.9312 21.7111 19.9916L21.5872 20H3.41278C2.90866 20 2.5 19.5915 2.5 19.0869C2.50487 15.0199 4.95883 11.4302 8.59559 9.88691L8.90136 9.76307L9.0753 9.6983L8.9906 9.63125C7.6071 8.47005 6.86889 6.67417 7.07815 4.83955L7.11667 4.56414L7.16446 4.31255C7.70307 1.79724 9.92664 0 12.5 0ZM12.5 10.9154L12.2222 10.9219C8.23681 11.0647 4.96053 14.0608 4.41764 17.9574L4.39059 18.1747H20.6083L20.5824 17.9574C20.0395 14.0608 16.7631 11.0647 12.7779 10.9219L12.5 10.9154ZM8.86916 5.46156C8.86916 3.45805 10.4947 1.83315 12.5 1.83315C14.5052 1.83315 16.1309 3.45805 16.1309 5.46247C16.1309 7.46689 14.5052 9.09179 12.5 9.09179C10.4964 9.08871 8.87224 7.4652 8.86916 5.46156Z" fill="black"/>
</svg>
